<?xml version="1.0" encoding="utf-8"?>
<svg version="1.1" id="Camada_1" x="0px" y="0px" viewBox="0 0 350 100" style="enable-background:new 0 0 350 100;" xmlns="http://www.w3.org/2000/svg">
  <style type="text/css">
	.st0{clip-path:url(#SVGID_2_);}
	.st1{clip-path:url(#SVGID_4_);fill:url(#SVGID_5_);}
	.st2{clip-path:url(#SVGID_2_);fill:#FFFFFF;}
	.st3{clip-path:url(#SVGID_2_);fill:none;stroke:#FFFFFF;stroke-width:2.3621;stroke-miterlimit:22.9256;}
</style>
  <g>
    <g>
      <defs>
        <rect id="SVGID_1_" y="0" width="350" height="100"/>
      </defs>
      <clipPath id="SVGID_2_">
        <rect width="350" height="100" style="overflow: visible;" y="0" transform="matrix(1, 0, 0, 1, 0, 0)"/>
      </clipPath>
      <g class="st0">
        <defs>
          <path id="SVGID_3_" d="M15,39.77l3.91,5.95c1.02,1.54,1.87,2.97,2.77,4.52h0.17c0.91-1.66,1.81-3.09,2.72-4.57l3.85-5.89h5.38 l-9.34,13.38l9.62,14.3h-5.66l-4.02-6.23c-1.07-1.6-1.98-3.15-2.94-4.8h-0.11c-0.9,1.66-1.87,3.15-2.89,4.8l-3.96,6.23H9 l9.73-14.12L9.45,39.77H15z"/>
        </defs>
        <clipPath id="SVGID_4_">
          <path d="M15,39.77l3.91,5.95c1.02,1.54,1.87,2.97,2.77,4.52h0.17c0.91-1.66,1.81-3.09,2.72-4.57l3.85-5.89h5.38 l-9.34,13.38l9.62,14.3h-5.66l-4.02-6.23c-1.07-1.6-1.98-3.15-2.94-4.8h-0.11c-0.9,1.66-1.87,3.15-2.89,4.8l-3.96,6.23H9 l9.73-14.12L9.45,39.77H15z" transform="matrix(1, 0, 0, 1, 0, 0)" style="overflow: visible;"/>
        </clipPath>
        <linearGradient id="SVGID_5_" gradientUnits="userSpaceOnUse" x1="15.8013" y1="41.2448" x2="27.2596" y2="65.9531">
          <stop offset="0" style="stop-color:#7EBA00"/>
          <stop offset="0.2435" style="stop-color:#77B000"/>
          <stop offset="0.6562" style="stop-color:#659500"/>
          <stop offset="1" style="stop-color:#537A00"/>
        </linearGradient>
        <rect x="9" y="39.77" class="st1" width="25.07" height="27.68"/>
      </g>
      <path class="st2" d="M38.88,47.26c0-2.86-0.06-5.2-0.23-7.49h4.36l0.23,4.46h0.17c1.53-2.63,4.07-5.09,8.6-5.09 c3.73,0,6.56,2.29,7.75,5.55h0.11c0.85-1.54,1.92-2.75,3.06-3.6c1.64-1.26,3.45-1.94,6.05-1.94c3.62,0,9,2.4,9,12.01v16.3h-4.87 V51.77c0-5.32-1.93-8.52-5.94-8.52c-2.83,0-5.04,2.12-5.89,4.57c-0.23,0.69-0.4,1.6-0.4,2.52v17.1h-4.87V50.86 c0-4.4-1.92-7.61-5.72-7.61c-3.11,0-5.38,2.52-6.17,5.03c-0.28,0.74-0.4,1.6-0.4,2.46v16.7h-4.87V47.26z" style="fill: rgb(85, 79, 79);"/>
      <path class="st2" d="M110.85,53.38c0,10.24-7.02,14.7-13.64,14.7c-7.41,0-13.13-5.49-13.13-14.24c0-9.26,6-14.7,13.58-14.7 C105.53,39.14,110.85,44.91,110.85,53.38 M89.12,53.66c0,6.06,3.45,10.64,8.32,10.64c4.75,0,8.32-4.52,8.32-10.75 c0-4.69-2.32-10.64-8.21-10.64S89.12,48.4,89.12,53.66z" style="fill: rgb(85, 79, 79);"/>
      <path class="st2" d="M116.9,67.44c0.11-1.89,0.23-4.69,0.23-7.15V26.84h4.92v17.38h0.11c1.75-3.09,4.92-5.09,9.34-5.09 c6.79,0,11.6,5.72,11.54,14.12c0,9.89-6.17,14.81-12.28,14.81c-3.96,0-7.13-1.54-9.17-5.2h-0.17l-0.23,4.57H116.9z M122.05,56.35 c0,0.63,0.11,1.26,0.23,1.83c0.96,3.49,3.85,5.89,7.47,5.89c5.21,0,8.32-4.29,8.32-10.64c0-5.55-2.83-10.29-8.15-10.29 c-3.39,0-6.56,2.34-7.58,6.18c-0.11,0.57-0.28,1.26-0.28,2.06V56.35z" style="fill: rgb(85, 79, 79);"/>
      <path class="st2" d="M174.11,53.38c0,10.24-7.02,14.7-13.64,14.7c-7.41,0-13.13-5.49-13.13-14.24c0-9.26,6-14.7,13.58-14.7 C168.79,39.14,174.11,44.91,174.11,53.38 M152.38,53.66c0,6.06,3.45,10.64,8.32,10.64c4.75,0,8.32-4.52,8.32-10.75 c0-4.69-2.32-10.64-8.2-10.64C154.92,42.91,152.38,48.4,152.38,53.66z" style="fill: rgb(85, 79, 79);"/>
      <path class="st2" d="M186.38,31.82v7.95h7.13v3.83h-7.13v14.93c0,3.43,0.96,5.38,3.73,5.38c1.3,0,2.26-0.17,2.89-0.34l0.23,3.77 c-0.96,0.4-2.49,0.69-4.41,0.69c-2.32,0-4.19-0.74-5.38-2.12c-1.41-1.49-1.92-3.94-1.92-7.2V43.6h-4.24v-3.83h4.24v-6.63 L186.38,31.82z" style="fill: rgb(85, 79, 79);"/>
      <path class="st2" d="M198.43,62.3c1.47,0.97,4.07,2,6.56,2c3.62,0,5.32-1.83,5.32-4.12c0-2.4-1.41-3.72-5.09-5.09 c-4.92-1.77-7.24-4.52-7.24-7.83c0-4.46,3.56-8.12,9.45-8.12c2.77,0,5.21,0.8,6.73,1.72l-1.24,3.66c-1.08-0.69-3.06-1.6-5.6-1.6 c-2.94,0-4.58,1.72-4.58,3.78c0,2.29,1.64,3.32,5.21,4.69c4.75,1.83,7.19,4.23,7.19,8.35c0,4.86-3.73,8.29-10.24,8.29 c-3,0-5.77-0.74-7.7-1.89L198.43,62.3z" style="fill: rgb(85, 79, 79);"/>
      <path class="st2" d="M238.78,37.65c0,5.32-4.13,9.49-9.51,9.49c-5.32,0-9.56-4.18-9.56-9.49c0-5.2,4.24-9.38,9.56-9.38 C234.65,28.27,238.78,32.45,238.78,37.65 M222.09,37.65c0,4.17,3.06,7.49,7.24,7.49c4.07,0,7.07-3.32,7.07-7.43 c0-4.17-3-7.55-7.13-7.55C225.14,30.16,222.09,33.53,222.09,37.65z M227.8,42.57h-2.15v-9.38c0.85-0.17,2.04-0.29,3.57-0.29 c1.75,0,2.54,0.29,3.22,0.69c0.51,0.4,0.91,1.14,0.91,2.06c0,1.03-0.79,1.83-1.92,2.17v0.11c0.91,0.34,1.41,1.03,1.7,2.29 c0.28,1.43,0.45,2,0.68,2.34h-2.32c-0.28-0.34-0.45-1.2-0.74-2.29c-0.17-1.03-0.74-1.49-1.92-1.49h-1.02V42.57z M227.86,37.25 h1.02c1.19,0,2.15-0.4,2.15-1.37c0-0.86-0.62-1.43-1.98-1.43c-0.57,0-0.96,0.06-1.19,0.11V37.25z" style="fill: rgb(85, 79, 79);"/>
      <path class="st2" d="M319.43,42.83c0,0-1.1-0.19-2.16-0.19c-1.06,0-2.12,0.46-2.12,1.88c0,1.3,0.86,1.6,2.08,1.83 c0.95,0.19,1.61,0.29,1.61,1.17c0,1.01-0.54,1.3-1.62,1.3c-0.64,0-1.99-0.21-1.99-0.21l-0.05,0.66c0,0,1.27,0.25,2.1,0.25 c1.46,0,2.37-0.46,2.37-2.07c0-1.35-0.88-1.55-2.2-1.82c-1.01-0.2-1.49-0.38-1.49-1.18c0-0.82,0.65-1.13,1.34-1.13 c0.86,0,2.1,0.15,2.1,0.15L319.43,42.83z M310.02,41.2h0.82v-1.03h-0.82V41.2z M310.03,49.4h0.79v-6.63h-0.79V49.4z M295.03,42.77 l1.8,6.63h0.86l-0.86,2.98h0.77l2.65-9.61h-0.8l-1.61,5.94h-0.45l-1.56-5.94H295.03z M287.68,49.4v-3.18l0.94-0.03l2.07,3.21h0.9 l-2.3-3.59l2.27-3.04h-0.92l-2.04,2.73l-0.93,0.03v-5.7h-0.79v9.58H287.68z M282.4,42.83c0,0-1.1-0.19-2.16-0.19 c-1.06,0-2.12,0.46-2.12,1.88c0,1.3,0.86,1.6,2.08,1.83c0.95,0.19,1.61,0.29,1.61,1.17c0,1.01-0.54,1.3-1.62,1.3 c-0.64,0-1.99-0.21-1.99-0.21l-0.05,0.66c0,0,1.27,0.25,2.1,0.25c1.46,0,2.37-0.46,2.37-2.07c0-1.35-0.88-1.55-2.2-1.82 c-1.01-0.2-1.49-0.38-1.49-1.18c0-0.82,0.65-1.13,1.34-1.13c0.86,0,2.1,0.15,2.1,0.15L282.4,42.83z" style="fill: rgb(85, 79, 79);"/>
      <path class="st2" d="M297.21,63.17h1.43l1.03-4.43c0,0,1.33-0.65,2.06-0.86l0.41-1.49c-1.07,0.17-2.21,1.11-2.21,1.11l0.23-0.97 h-1.42L297.21,63.17z M292.91,56.53l-1.02,4.43c0,0-0.98,1.1-1.6,1.1c-0.52,0-0.69-0.32-0.69-0.86c0-0.37,0.15-1.1,0.24-1.47 l0.73-3.2h-1.43l-0.76,3.3c-0.09,0.42-0.27,1.21-0.27,1.7c0,1.01,0.45,1.78,1.59,1.78c0.98,0,1.88-1.02,1.88-1.02l-0.15,0.88h1.38 l1.52-6.63H292.91z M281.1,62.09c-0.68,0-1.02-0.41-1.02-1.13c0-1.63,0.73-3.34,1.91-3.34c0.7,0,1.05,0.45,1.05,1.15 C283.04,60.41,282.31,62.09,281.1,62.09z M281.99,56.4c-2.06,0-3.34,2.32-3.34,4.55c0,1.67,0.89,2.36,2.45,2.36 c2.19,0,3.37-2.31,3.37-4.52C284.47,57.13,283.57,56.4,281.99,56.4z" style="fill: rgb(85, 79, 79);"/>
      <path class="st2" d="M340.21,61.22c0,0-0.78,1.38-1.84,1.38c-1.22,0-1.44-1.22-1.44-2.65c0-1.8,0.4-2.84,1.82-2.84 c0.68,0,1.47,0.15,1.47,0.15V61.22z M341,53.59h-0.78v2.98c0,0-0.82-0.16-1.52-0.16c-1.9,0-2.59,1.23-2.59,3.53 c0,2.06,0.48,3.35,2.07,3.35c1.27,0,2.04-1.19,2.04-1.19v1.06H341V53.59z M330.87,63.17h0.78v-9.58h-0.78V63.17z M322.57,59.49 c0.03-1.54,0.54-2.4,1.84-2.4c0.81,0,1.33,0.26,1.33,1.05c0,1.09-0.68,1.35-2.43,1.35H322.57z M324.21,62.6 c-1.17,0-1.64-0.88-1.64-2.27v-0.19h0.74c2.24,0,3.22-0.44,3.22-2.02c0-1.19-0.85-1.71-2.11-1.71c-1.86,0-2.67,1.26-2.67,3.5 c0,2.37,0.72,3.37,2.41,3.37c1.19,0,2.12-0.36,2.12-0.36l-0.05-0.6C326.24,62.33,325.15,62.6,324.21,62.6z M316.57,54.97h0.82 v-1.03h-0.82V54.97z M316.59,63.17h0.79v-6.63h-0.79V63.17z M310.78,57.24h1.84v-0.7h-1.84V55.9c0-1.22,0.21-1.75,0.95-1.75 c0.37,0,1.01,0.11,1.01,0.11v-0.66c0,0-0.68-0.13-1.11-0.13c-1.15,0-1.65,0.65-1.65,2.43v0.65h-0.79v0.7h0.79v8.91h0.73l0.07-2.98 V57.24z" style="fill: rgb(85, 79, 79);"/>
      <line class="st3" x1="258.45" y1="31.82" x2="258.45" y2="73.16" style="paint-order: stroke markers; fill: rgb(85, 79, 79); stroke: rgb(85, 79, 79);"/>
    </g>
  </g>
</svg>